<svg width="24" height="24" viewBox="0 0 24 24" fill="none" xmlns="http://www.w3.org/2000/svg">
<g clip-path="url(#clip0_105_16)">
<path d="M3.99999 11C4.25487 11.0003 4.50002 11.0979 4.68536 11.2728C4.8707 11.4478 4.98223 11.687 4.99716 11.9414C5.0121 12.1958 4.92932 12.4464 4.76573 12.6418C4.60214 12.8373 4.37009 12.9629 4.11699 12.993L3.99999 13H2.99999C2.74511 12.9997 2.49996 12.9021 2.31462 12.7272C2.12929 12.5522 2.01776 12.313 2.00282 12.0586C1.98788 11.8042 2.07067 11.5536 2.23426 11.3582C2.39785 11.1627 2.62989 11.0371 2.88299 11.007L2.99999 11H3.99999ZM12 2C12.2449 2.00003 12.4813 2.08996 12.6644 2.25272C12.8474 2.41547 12.9643 2.63975 12.993 2.883L13 3V4C12.9997 4.25488 12.9021 4.50003 12.7271 4.68537C12.5522 4.8707 12.313 4.98223 12.0586 4.99717C11.8042 5.01211 11.5536 4.92933 11.3582 4.76574C11.1627 4.60214 11.0371 4.3701 11.007 4.117L11 4V3C11 2.73478 11.1053 2.48043 11.2929 2.29289C11.4804 2.10536 11.7348 2 12 2ZM21 11C21.2549 11.0003 21.5 11.0979 21.6854 11.2728C21.8707 11.4478 21.9822 11.687 21.9972 11.9414C22.0121 12.1958 21.9293 12.4464 21.7657 12.6418C21.6021 12.8373 21.3701 12.9629 21.117 12.993L21 13H20C19.7451 12.9997 19.5 12.9021 19.3146 12.7272C19.1293 12.5522 19.0178 12.313 19.0028 12.0586C18.9879 11.8042 19.0707 11.5536 19.2343 11.3582C19.3978 11.1627 19.6299 11.0371 19.883 11.007L20 11H21ZM4.89299 4.893C5.06518 4.72082 5.29428 4.61739 5.53731 4.60211C5.78034 4.58683 6.02059 4.66075 6.21299 4.81L6.30699 4.893L7.00699 5.593C7.18634 5.77296 7.29046 6.01443 7.29822 6.26838C7.30597 6.52233 7.21678 6.76971 7.04874 6.96028C6.88071 7.15084 6.64644 7.27031 6.39352 7.2944C6.14059 7.31849 5.88798 7.24541 5.68699 7.09L5.59299 7.007L4.89299 6.307C4.70552 6.11947 4.6002 5.86516 4.6002 5.6C4.6002 5.33484 4.70552 5.08053 4.89299 4.893ZM17.693 4.893C17.8729 4.71365 18.1144 4.60953 18.3684 4.60177C18.6223 4.59402 18.8697 4.68322 19.0603 4.85125C19.2508 5.01928 19.3703 5.25355 19.3944 5.50647C19.4185 5.7594 19.3454 6.01201 19.19 6.213L19.107 6.307L18.407 7.007C18.227 7.18635 17.9856 7.29047 17.7316 7.29823C17.4777 7.30598 17.2303 7.21678 17.0397 7.04875C16.8491 6.88072 16.7297 6.64645 16.7056 6.39353C16.6815 6.1406 16.7546 5.88799 16.91 5.687L16.993 5.593L17.693 4.893ZM14 18C14.2652 18 14.5196 18.1054 14.7071 18.2929C14.8946 18.4804 15 18.7348 15 19C15 19.7956 14.6839 20.5587 14.1213 21.1213C13.5587 21.6839 12.7956 22 12 22C11.2043 22 10.4413 21.6839 9.87867 21.1213C9.31606 20.5587 8.99999 19.7956 8.99999 19C9.00002 18.7551 9.08995 18.5187 9.25271 18.3356C9.41547 18.1526 9.63974 18.0357 9.88299 18.007L9.99999 18H14ZM12 6C13.2593 6 14.4867 6.39622 15.5083 7.13255C16.5298 7.86887 17.2939 8.90796 17.6921 10.1026C18.0903 11.2973 18.1026 12.587 17.7271 13.789C17.3516 14.991 16.6074 16.0444 15.6 16.8C15.4622 16.9035 15.2999 16.9697 15.129 16.992L15 17H8.99999C8.78362 17 8.57309 16.9298 8.39999 16.8C7.39255 16.0444 6.64839 14.991 6.27291 13.789C5.89743 12.587 5.90967 11.2973 6.30789 10.1026C6.70612 8.90796 7.47014 7.86887 8.49173 7.13255C9.51332 6.39622 10.7407 6 12 6Z" fill="white"/>
</g>
<defs>
<clipPath id="clip0_105_16">
<rect width="24" height="24" fill="white"/>
</clipPath>
</defs>
</svg>
