<svg width="43" height="43" viewBox="0 0 43 43" fill="none" xmlns="http://www.w3.org/2000/svg">
<g clip-path="url(#clip0_104_11)">
<path d="M37.5892 4.58667C36.4413 3.45197 34.932 2.75534 33.3238 2.61787C31.7156 2.4804 30.11 2.91076 28.7861 3.83417C33.0417 5.60597 36.5181 8.84917 38.5806 12.9717C39.3767 11.6644 39.7117 10.1281 39.532 8.60807C39.3522 7.08808 38.6682 5.67219 37.5892 4.58667Z" fill="#E44659"/>
<path d="M13.6405 4.09694C12.3222 3.04987 10.6661 2.52159 8.98493 2.61181C7.30375 2.70203 5.71374 3.40451 4.51499 4.58667C3.32614 5.78339 2.62203 7.37762 2.53823 9.06241C2.45443 10.7472 2.99687 12.4034 4.0611 13.7122C5.97763 9.44809 9.38361 6.02937 13.6405 4.09694Z" fill="#E44659"/>
<path d="M21.4999 4.77777C18.1983 4.78459 14.9726 5.7686 12.2294 7.60578C9.48617 9.44295 7.34816 12.0511 6.08484 15.1014C4.82153 18.1518 4.48945 21.5078 5.13046 24.7466C5.77147 27.9854 7.35689 30.9619 9.68688 33.3011L6.64105 36.3469C6.53047 36.4599 6.44321 36.5935 6.38426 36.7401C6.32532 36.8868 6.29583 37.0436 6.2975 37.2017C6.29916 37.3597 6.33194 37.5159 6.39396 37.6613C6.45598 37.8067 6.54603 37.9384 6.65897 38.049C6.7719 38.1596 6.90552 38.2469 7.05218 38.3058C7.19883 38.3648 7.35567 38.3942 7.51372 38.3926C7.67177 38.3909 7.82795 38.3581 7.97334 38.2961C8.11872 38.2341 8.25047 38.144 8.36105 38.0311L11.5383 34.8539C14.4438 37.0526 17.9919 38.2344 21.6356 38.2171C25.2792 38.1999 28.8159 36.9845 31.7005 34.7583L34.9733 38.0311C35.2018 38.2268 35.4957 38.329 35.7963 38.3174C36.0969 38.3058 36.3821 38.1812 36.5948 37.9685C36.8075 37.7557 36.9321 37.4706 36.9438 37.17C36.9554 36.8694 36.8531 36.5754 36.6574 36.3469L33.4444 33.1817C35.7416 30.8286 37.2941 27.8505 37.9076 24.6198C38.5211 21.389 38.1684 18.0491 36.8937 15.0178C35.6189 11.9864 33.4787 9.3982 30.7407 7.57686C28.0027 5.75552 24.7884 4.78189 21.4999 4.77777ZM30.4224 25.5969C30.2856 25.8815 30.0417 26.1003 29.744 26.2055C29.4463 26.3107 29.1191 26.2937 28.8338 26.1583L20.3055 22.0255V11.5742C20.3055 11.2574 20.4313 10.9536 20.6553 10.7296C20.8793 10.5056 21.1832 10.3797 21.4999 10.3797C21.8167 10.3797 22.1205 10.5056 22.3445 10.7296C22.5685 10.9536 22.6944 11.2574 22.6944 11.5742V20.5325L29.8611 24.0083C30.004 24.0739 30.1326 24.1671 30.2395 24.2826C30.3464 24.398 30.4294 24.5334 30.4837 24.681C30.5381 24.8286 30.5628 24.9855 30.5564 25.1427C30.55 25.2999 30.5126 25.4543 30.4463 25.5969H30.4224Z" fill="#E44659"/>
</g>
<defs>
<clipPath id="clip0_104_11">
<rect width="43" height="43" fill="white"/>
</clipPath>
</defs>
</svg>
