<svg width="63" height="63" viewBox="0 0 63 63" fill="none" xmlns="http://www.w3.org/2000/svg">
<g clip-path="url(#clip0_108_22)">
<path d="M31.5 0C48.8975 0 63 14.1026 63 31.5C63 48.8975 48.8975 63 31.5 63C14.1026 63 0 48.8975 0 31.5C0 14.1026 14.1026 0 31.5 0ZM31.0432 22.7115C30.4607 22.7115 29.9019 22.9427 29.4896 23.3544C29.0774 23.766 28.8454 24.3245 28.8445 24.9071V48.7148C28.8661 49.2831 29.107 49.8209 29.5167 50.2154C29.9264 50.6099 30.473 50.8302 31.0417 50.8302C31.6104 50.8302 32.157 50.6099 32.5667 50.2154C32.9764 49.8209 33.2173 49.2831 33.2388 48.7148V24.9071C33.2388 24.3245 33.0076 23.7657 32.5959 23.3534C32.1843 22.9412 31.6258 22.7123 31.0432 22.7115ZM31.1315 13.9167C30.3545 13.9167 29.6094 14.2253 29.06 14.7747C28.5106 15.3241 28.202 16.0692 28.202 16.8462C28.202 17.6232 28.5106 18.3683 29.06 18.9177C29.6094 19.4671 30.3545 19.7757 31.1315 19.7757C31.9084 19.7757 32.6535 19.4671 33.2029 18.9177C33.7523 18.3683 34.061 17.6232 34.061 16.8462C34.061 16.0692 33.7523 15.3241 33.2029 14.7747C32.6535 14.2253 31.9084 13.9167 31.1315 13.9167Z" fill="#FFE997"/>
</g>
<defs>
<clipPath id="clip0_108_22">
<rect width="63" height="63" fill="white"/>
</clipPath>
</defs>
</svg>
